<?xml version="1.0" encoding="UTF-8" standalone="no"?>
<svg width="150px" height="57px" viewBox="0 0 150 57" version="1.1" xmlns="http://www.w3.org/2000/svg" xmlns:xlink="http://www.w3.org/1999/xlink">
    <!-- Generator: Sketch 3.7.2 (28276) - http://www.bohemiancoding.com/sketch -->
    <title>Shape Copy 2</title>
    <desc>Created with Sketch.</desc>
    <defs></defs>
    <g id="All-design" stroke="none" stroke-width="1" fill="none" fill-rule="evenodd">
        <g id="Registration" transform="translate(-537.000000, -298.000000)" fill="#000000">
            <g id="Group-10" transform="translate(435.000000, 268.000000)">
                <g id="Group-2" transform="translate(101.000000, 30.000000)">
                    <g id="Group-5">
                        <g id="top">
                            <g id="Logo-+-Bitmap-+-+">
                                <g id="Logo" transform="translate(0.492593, 0.000000)">
                                    <path d="M116.514156,27.4550903 C116.183048,25.7587607 115.367311,24.0483502 114.282705,22.9922857 L108.736028,17.5844068 C107.067212,15.9559967 107.582545,14.3632028 109.89698,14.0269187 L115.37644,13.230936 C115.391377,13.6417658 115.528301,14.1172019 115.788042,14.6365372 L117.602081,18.245379 C118.651004,20.3268615 118.589595,23.6706519 117.467646,25.7156898 L116.514156,27.4550903 L116.514156,27.4550903 Z M120.032694,12.0274365 C121.551308,11.1875546 122.931339,9.88051936 123.602683,8.51798901 L127.031598,1.56949832 C128.063094,-0.522751944 129.736059,-0.52358023 130.767555,1.56949832 L133.218914,6.54169877 C132.842995,6.6874771 132.440521,6.95915488 132.034727,7.36004527 L129.156828,10.212662 C127.50046,11.8526682 124.298922,12.8333587 122.004403,12.3993369 L120.032694,12.0274365 L120.032694,12.0274365 Z M135.822965,10.6218353 C137.089307,11.797173 138.748994,12.6966915 140.246863,12.9137024 L147.901343,14.0269187 C150.210799,14.3632028 150.730281,15.9543401 149.060635,17.5844068 L145.10311,21.4442193 C144.846688,21.122016 144.46081,20.8180351 143.942988,20.5529836 L140.358892,18.7075625 C138.283452,17.6382454 136.366512,14.9007604 136.074407,12.5898426 L135.822965,10.6218353 L135.822965,10.6218353 Z M142.031027,25.1648797 C141.296615,26.7361381 140.947251,28.6055794 141.204503,30.098979 L142.515656,37.7457147 C142.907342,40.0433799 141.555527,41.0248987 139.490875,39.9398441 L134.579029,37.355592 C134.804746,37.0143382 134.972375,36.5554678 135.065317,35.9847788 L135.720894,31.9882992 C136.095983,29.6898057 138.110844,27.0152704 140.222797,26.0188425 L142.031027,25.1648797 Z M12.933034,49.4054958 C12.9214162,49.5065466 12.8151962,49.6017995 12.6135441,49.6904261 C11.8517474,49.936427 11.0899506,50.0813771 10.3281539,50.1261045 C9.56635712,50.170832 8.97218885,50.1931957 8.54730875,50.1931957 C6.71003425,50.1931957 5.41049862,49.8022447 4.64870188,49.0195145 C3.88690513,48.2367843 3.50600676,47.0407394 3.50600676,45.4305516 L3.50600676,35.1987355 L1.12020541,35.1987355 C0.872911913,35.1987355 0.722710158,35.14821 0.666280769,35.0479874 C0.609851381,34.9477648 0.581636687,34.8077845 0.581636687,34.6288747 L0.581636687,33.2539201 C0.581636687,33.0526466 0.615660288,32.9076966 0.682877648,32.8174134 C0.750095008,32.7287868 0.895317699,32.6616956 1.11937557,32.6161399 L3.67363524,32.0462792 L4.11013316,28.8590349 C4.15494473,28.613034 4.227971,28.444892 4.32838211,28.3562654 C4.42962308,28.2676388 4.60306046,28.1773556 4.84952411,28.0879007 L6.79965739,27.4169891 C6.97890369,27.3722617 7.12412638,27.3896557 7.23615531,27.4675146 C7.34818424,27.5462017 7.40378379,27.7085458 7.40378379,27.9537184 L7.40378379,32.213593 L11.0003275,32.213593 C11.2467911,32.213593 11.3978227,32.2641184 11.4542521,32.3651693 C11.5090218,32.4653919 11.5380663,32.5946045 11.5380663,32.7511505 L11.5380663,34.629703 C11.5380663,34.8309765 11.5098516,34.9767548 11.4542521,35.0662097 C11.3978227,35.1556646 11.2467911,35.200392 11.0003275,35.200392 L7.40378379,35.200392 L7.40378379,44.9286103 C7.40378379,45.6450776 7.57224211,46.1362512 7.90749906,46.4046158 C8.24358586,46.6729805 8.75891896,46.8071628 9.45349834,46.8071628 C9.58793306,46.8071628 9.76717935,46.8021931 9.99040738,46.7905971 C10.2152951,46.7790011 10.444332,46.7624354 10.6800077,46.7400716 C10.9148535,46.7185362 11.1496994,46.6895462 11.3862049,46.6564148 C11.6210507,46.622455 11.8177238,46.5951216 11.9737344,46.5719296 C12.1977923,46.5272021 12.3438448,46.5338284 12.4102323,46.5893236 C12.4774497,46.645647 12.5222613,46.7516676 12.544667,46.9082137 L12.9147775,49.0551308 C12.9388429,49.1868283 12.943822,49.3044449 12.933034,49.4054958 Z M30.7016526,40.9354438 C30.7016526,43.9098186 30.0128822,46.1967161 28.6345114,47.7953079 C27.2569704,49.394728 25.2006171,50.194024 22.4671111,50.194024 C19.756011,50.194024 17.7336813,49.4170918 16.4009519,47.8632274 C15.0673927,46.3093629 14.401028,44.0332332 14.401028,41.0364947 C14.401028,39.5604892 14.60268,38.2517974 15.0059842,37.1112477 C15.4092884,35.9706979 15.969433,35.009058 16.6864182,34.2263278 C17.4034034,33.4435976 18.2598023,32.8455751 19.2581046,32.4314322 C20.2547472,32.0172892 21.3584396,31.8102177 22.5683521,31.8102177 C25.2346407,31.8102177 27.2561406,32.6211096 28.6345114,34.2428935 C30.0128822,35.8638491 30.7016526,38.0952514 30.7016526,40.9354438 Z M26.7026347,41.0356664 C26.7026347,40.2264311 26.6403964,39.4619231 26.5175795,38.7413144 C26.3939327,38.0215339 26.1814927,37.3862386 25.8785996,36.8354285 C25.5757066,36.2846183 25.1616144,35.8514248 24.6346635,35.5366761 C24.1077126,35.2227557 23.4413479,35.0645531 22.6355695,35.0645531 C21.9177544,35.0645531 21.2912223,35.2161295 20.7526535,35.5201104 C20.2157445,35.8240913 19.7667989,36.2340929 19.4083063,36.7517716 C19.0498138,37.2694503 18.7867532,37.8881799 18.6191248,38.6071321 C18.4506664,39.3269125 18.3668522,40.1030165 18.3668522,40.9346155 C18.3668522,42.801572 18.6689154,44.2692947 19.2738716,45.3369553 C19.8788279,46.4054441 20.9543056,46.9396885 22.5011347,46.9396885 C23.2845074,46.9396885 23.9458931,46.7765162 24.4844618,46.4509998 C25.0213708,46.1246552 25.4528897,45.6914616 25.7781885,45.1522475 C26.1034873,44.6130334 26.3383332,43.9885058 26.4843857,43.2803213 C26.6304382,42.5721368 26.7026347,41.8225381 26.7026347,41.0356664 Z M38.0142375,56.0640864 C38.0142375,56.309259 37.9694259,56.4666333 37.8814625,56.5337245 C37.7918393,56.6008157 37.6250407,56.6347754 37.3810666,56.6347754 L34.7488016,56.6347754 C34.5255736,56.6347754 34.3645838,56.6008157 34.2650026,56.5337245 C34.1654213,56.4666333 34.1148008,56.309259 34.1148008,56.0640864 L34.1148008,33.9240034 C34.1148008,33.7227299 34.1488244,33.5661839 34.2160418,33.4543653 C34.2832591,33.3425467 34.4284818,33.2307281 34.6525397,33.1189095 C35.772829,32.6269076 36.9545268,32.2914518 38.197633,32.1125421 C39.4415691,31.9336323 40.6232669,31.8441774 41.7435562,31.8441774 C43.1991025,31.8441774 44.4430386,32.0794106 45.4737048,32.5490488 C46.5035411,33.0186869 47.3499819,33.6680631 48.0113676,34.4946924 C48.6719234,35.3221501 49.1540627,36.2945577 49.4561259,37.4127438 C49.7590189,38.5309298 49.9100505,39.7269746 49.9100505,41.0017067 C49.9100505,42.254075 49.7474011,43.4335542 49.4212724,44.5401442 C49.0951438,45.6467342 48.6071955,46.6199702 47.9549382,47.4581955 C47.3035107,48.2972492 46.482795,48.9573931 45.4944509,49.4377989 C44.5061067,49.919033 43.3484744,50.159236 42.0232136,50.159236 C41.4165977,50.159236 40.7925551,50.1252762 40.1519155,50.0590134 C39.511276,49.9919222 38.7976102,49.8685076 38.011748,49.6895978 L38.011748,56.0640864 L38.0142375,56.0640864 Z M45.8454749,40.9685753 C45.8454749,39.8951167 45.738425,38.9947699 45.5243253,38.2683631 C45.3102255,37.5419564 45.0015236,36.9489036 44.5965597,36.4908615 C44.1915959,36.0328194 43.696179,35.7023333 43.1111391,35.5010598 C42.5260991,35.2997863 41.8738417,35.1987355 41.154367,35.1987355 C40.7037618,35.1987355 40.1685124,35.2442912 39.5502787,35.3329178 C38.9320449,35.4223727 38.4200312,35.5341913 38.0142375,35.6683736 L38.0142375,46.3358681 C38.7121363,46.5147779 39.325391,46.6373642 39.8540016,46.7044553 C40.383442,46.7715465 40.8730499,46.8055062 41.3228253,46.8055062 C41.9750827,46.8055062 42.5775494,46.7044553 43.1285658,46.5040101 C43.680412,46.3027367 44.1575723,45.9730789 44.563366,45.5142085 C44.9683298,45.0561663 45.2836705,44.4573156 45.5085582,43.7193128 C45.7326161,42.9813101 45.8454749,42.0643975 45.8454749,40.9685753 Z M57.2010595,49.7235576 C57.1006483,49.7906487 56.9263811,49.8246084 56.6799175,49.8246084 L54.092464,49.8246084 C53.8675763,49.8246084 53.7057567,49.7906487 53.6053456,49.7235576 C53.5041047,49.6564664 53.4534842,49.4999204 53.4534842,49.2539194 L53.4534842,34.8632797 C53.4534842,33.9687308 53.6053456,33.3036172 53.9074088,32.8671106 C54.209472,32.4306039 54.842643,32.1456735 55.8060918,32.0114912 C56.2093959,31.9667637 56.618509,31.927006 57.033431,31.8938746 C57.4475231,31.8599149 57.868254,31.8433491 58.2939639,31.8433491 C59.6598871,31.8433491 60.9768494,32.0222589 62.2431913,32.3800784 C63.5087033,32.737898 64.6572073,33.3417184 65.6878735,34.1915398 C65.8438842,34.3033584 65.9169104,34.409379 65.9069523,34.5104298 C65.8945047,34.6114807 65.855502,34.7175013 65.7882846,34.8293199 L64.2431152,37.0433282 C64.1302564,37.2230663 64.0182275,37.3009252 63.9070284,37.2785614 C63.7941696,37.257026 63.6597349,37.1899348 63.5037242,37.0772879 C62.8539564,36.5190232 62.1535681,36.0874863 61.4033892,35.7859902 C60.6532103,35.4836658 59.8300051,35.3329178 58.9329438,35.3329178 C58.6640743,35.3329178 58.3960347,35.3445138 58.1263355,35.3668775 C57.857466,35.3892412 57.5993846,35.4232009 57.3529209,35.4679284 L57.3529209,49.255576 C57.3529209,49.5007486 57.3031303,49.6564664 57.2010595,49.7235576 Z M81.9063436,47.9120962 C81.9063436,48.4488255 81.6930738,48.818241 81.2681937,49.0186862 C80.7744365,49.2431517 80.2433364,49.4328292 79.6715739,49.588547 C79.1006413,49.745093 78.5122819,49.8676793 77.9064958,49.9579625 C77.3015396,50.0465891 76.7023922,50.1087105 76.1090538,50.1426702 C75.5148856,50.17663 74.9497618,50.1931957 74.4111931,50.1931957 C72.9324112,50.1931957 71.7059018,50.0424476 70.7308352,49.7409516 C69.7557686,49.4386272 68.9831838,49.0360802 68.4114214,48.5333107 C67.8404887,48.0297128 67.4421636,47.4374884 67.2181058,46.7558091 C66.9940479,46.0741297 66.882019,45.3526927 66.882019,44.5923262 C66.882019,43.809596 67.0106448,43.0550275 67.2687262,42.3277925 C67.5268077,41.6013857 67.9458789,40.9644338 68.530089,40.4152803 C69.1118096,39.8677833 69.8677975,39.4254786 70.7980526,39.0900228 C71.7274778,38.754567 72.8651938,38.5872532 74.2087112,38.5872532 L77.9728833,38.5872532 L77.9728833,38.0173925 C77.9728833,37.5924818 77.9280718,37.2015308 77.8384486,36.8437113 C77.7496553,36.4858918 77.5753881,36.1727997 77.3181365,35.9044351 C77.0592251,35.6360704 76.7073713,35.4298272 76.2592556,35.2840489 C75.8111398,35.1390989 75.2285894,35.0662097 74.5124341,35.0662097 C73.7498075,35.0662097 72.9207934,35.1333009 72.0253918,35.2674832 C71.1291603,35.4016655 70.4005573,35.5590398 69.8404126,35.7371213 C69.5931191,35.8042125 69.4138728,35.8158085 69.3026738,35.7702527 C69.1906448,35.7255253 69.1126395,35.602939 69.0678279,35.4016655 L68.5981362,33.4891533 C68.5085131,33.1313338 68.6089242,32.8969288 68.9001994,32.784282 C69.8412425,32.4272907 70.8710788,32.1754918 71.992198,32.0297135 C73.1124873,31.8847634 74.1655593,31.8118743 75.1522438,31.8118743 C77.4824456,31.8118743 79.1902644,32.3270681 80.27736,33.354971 C81.3644556,34.3845304 81.9071735,35.8828996 81.9071735,37.8500787 L81.9071735,47.9120962 L81.9063436,47.9120962 Z M77.9413493,41.5723957 L74.7140861,41.5723957 C74.3331878,41.5723957 73.9249046,41.5947594 73.4875768,41.6394869 C73.0510789,41.6842143 72.6361569,41.8068006 72.2436407,42.0080741 C71.8511245,42.2093476 71.5266555,42.5000759 71.2694039,42.8802592 C71.0104926,43.2604424 70.8826966,43.7855757 70.8826966,44.4564873 C70.8826966,45.4181273 71.2071656,46.0890389 71.8569334,46.4692221 C72.5067012,46.8494054 73.3697389,47.0390829 74.4452167,47.0390829 C74.6012274,47.0390829 74.8194763,47.0341131 75.0999636,47.0216889 C75.3804508,47.0109211 75.6767051,46.9827594 75.9903861,46.938032 C76.3040672,46.8933045 76.634345,46.8369811 76.9820497,46.7698899 C77.3289244,46.7027988 77.6484143,46.6141722 77.9396896,46.5015253 L77.9396896,41.5723957 L77.9413493,41.5723957 Z M96.6369036,49.4054958 C96.6252858,49.5065466 96.5190657,49.6017995 96.3174137,49.6904261 C95.5556169,49.936427 94.7938202,50.0813771 94.0320234,50.1261045 C93.2702267,50.170832 92.6760584,50.1931957 92.2511783,50.1931957 C90.4139038,50.1931957 89.1143682,49.8022447 88.3525714,49.0195145 C87.5907747,48.2367843 87.2098763,47.0407394 87.2098763,45.4305516 L87.2098763,35.1987355 L84.824075,35.1987355 C84.5767815,35.1987355 84.4265797,35.14821 84.3701503,35.0479874 C84.3137209,34.9477648 84.2855062,34.8077845 84.2855062,34.6288747 L84.2855062,33.2539201 C84.2855062,33.0526466 84.3195299,32.9076966 84.3867472,32.8174134 C84.4539646,32.7287868 84.5991873,32.6616956 84.8232451,32.6161399 L87.3775048,32.0462792 L87.8140027,28.8590349 C87.8588143,28.613034 87.9318406,28.444892 88.0322517,28.3562654 C88.1334926,28.2676388 88.30693,28.1773556 88.5533937,28.0879007 L90.503527,27.4169891 C90.6827732,27.3722617 90.8279959,27.3896557 90.9400249,27.4675146 C91.0520538,27.5462017 91.1076534,27.7085458 91.1076534,27.9537184 L91.1076534,32.213593 L94.704197,32.213593 C94.9506607,32.213593 95.1016923,32.2641184 95.1581217,32.3651693 C95.2128914,32.4653919 95.2419359,32.5946045 95.2419359,32.7511505 L95.2419359,34.629703 C95.2419359,34.8309765 95.2137212,34.9767548 95.1581217,35.0662097 C95.1016923,35.1556646 94.9506607,35.200392 94.704197,35.200392 L91.1076534,35.200392 L91.1076534,44.9286103 C91.1076534,45.6450776 91.2761117,46.1362512 91.6113686,46.4046158 C91.9474554,46.6729805 92.4627885,46.8071628 93.1573679,46.8071628 C93.2918026,46.8071628 93.4710489,46.8021931 93.6942769,46.7905971 C93.9191646,46.7790011 94.1482016,46.7624354 94.3838773,46.7400716 C94.6187231,46.7185362 94.8535689,46.6895462 95.0900745,46.6564148 C95.3249203,46.622455 95.5215933,46.5951216 95.677604,46.5719296 C95.9016618,46.5272021 96.0477144,46.5338284 96.1141019,46.5893236 C96.1813193,46.645647 96.2261308,46.7516676 96.2485366,46.9082137 L96.618647,49.0551308 C96.6427125,49.1868283 96.6485214,49.3044449 96.6369036,49.4054958 Z M106.155214,31.8102177 C108.731049,31.8102177 110.64135,32.4703616 111.885286,33.7898211 C113.128392,35.1092806 113.749945,36.9207419 113.749945,39.2242051 C113.749945,39.8056618 113.683558,40.2868959 113.549123,40.6662509 C113.414689,41.0464341 113.223824,41.3487585 112.978191,41.5723957 C112.730897,41.7960329 112.445431,41.9525789 112.120962,42.0420338 C111.795663,42.1314887 111.443809,42.1762161 111.062911,42.1762161 L102.123002,42.1762161 C102.144578,43.0484012 102.279013,43.7814343 102.526306,44.3736587 C102.77277,44.9658832 103.108027,45.4471173 103.534566,45.8157045 C103.960276,46.1851201 104.452374,46.4476867 105.013348,46.6042327 C105.573493,46.7607788 106.177619,46.8394659 106.828217,46.8394659 C107.545202,46.8394659 108.251399,46.7508394 108.945979,46.5711013 C109.640558,46.3921915 110.244685,46.1801503 110.760848,45.9333211 C111.11934,45.7776034 111.365804,45.8446945 111.501068,46.1345946 L112.408918,48.0471068 C112.564928,48.4049264 112.486923,48.6625233 112.173242,48.8190693 C111.321822,49.3334349 110.392397,49.6912544 109.384136,49.8925279 C108.375876,50.0938014 107.412427,50.194024 106.49462,50.194024 C103.78269,50.194024 101.70974,49.4676172 100.276599,48.0139754 C98.8426288,46.5603336 98.1256436,44.2568704 98.1256436,41.1035859 C98.1256436,39.6275803 98.3272957,38.3139188 98.7305999,37.1617731 C99.133904,36.0096274 99.6882398,35.0372197 100.394437,34.2437218 C101.100634,33.4502239 101.946245,32.8455751 102.9321,32.4322604 C103.913805,32.0172892 104.989283,31.8102177 106.155214,31.8102177 Z M106.222431,35.0645531 C105.617475,35.0645531 105.079736,35.1821697 104.609214,35.4165747 C104.138693,35.6509796 103.735389,35.9698697 103.399302,36.3724166 C103.063215,36.7749636 102.794346,37.233834 102.592694,37.7481996 C102.391042,38.2633934 102.278183,38.8001227 102.256607,39.3583874 L109.986603,39.3583874 C109.986603,38.754567 109.930174,38.1963022 109.818145,37.6811084 C109.706116,37.1667428 109.510273,36.7144987 109.229786,36.3227195 C108.949298,35.9317685 108.56923,35.6236461 108.08709,35.4000089 C107.605781,35.1763717 106.983398,35.0645531 106.222431,35.0645531 Z M128.282173,36.5223364 C128.337772,36.2589414 128.443992,35.5954844 128.515359,35.0339066 C128.576767,34.548531 128.655602,34.1898832 128.521168,33.9471954 C128.378435,33.6887702 127.97928,33.4204056 127.665599,33.2224452 C127.172671,32.911838 125.993463,32.2044818 123.912214,31.747268 C122.49899,31.4366608 120.562964,31.747268 119.836851,31.8855917 C118.880871,32.0669863 117.904144,32.4322604 117.602081,32.8679388 C117.299188,33.3036172 117.148156,33.9695591 117.148156,34.8641079 L117.148156,49.255576 C117.148156,49.5015769 117.198777,49.658123 117.299188,49.7252141 C117.400429,49.7923053 117.562249,49.826265 117.787136,49.826265 L120.37459,49.826265 C120.621053,49.826265 120.794491,49.7923053 120.895732,49.7252141 C120.996143,49.658123 121.046763,49.5015769 121.046763,49.255576 L121.046763,35.4671001 C121.293227,35.4223727 121.525583,35.3287763 121.791133,35.2840489 C122.123901,35.2277255 122.5521,35.1763717 122.824289,35.188796 C123.718861,35.2310386 124.354521,35.3826149 125.093082,35.7064747 C125.834133,36.0311628 126.547799,36.5181949 127.197567,37.0764597 C127.353577,37.1891065 127.488012,37.2777331 127.600041,37.2777331 C127.724518,37.2785614 128.13944,37.1949046 128.282173,36.5223364 Z" id="Shape-Copy-2"></path>
                                </g>
                            </g>
                        </g>
                    </g>
                </g>
            </g>
        </g>
    </g>
</svg>